# xmcd
#
# Track frame offsets: 
#        150
#        28725
#        51843
#        69404
#        94817
#        169716
#        188758
#        237224
#
# Disc length: 3581 seconds
#
# Revision: 0
# Processed by: cddbd v1.5.2PL0 Copyright (c) Steve Scherf et al.
# Submitted via: ExactAudioCopy v0.99pb1
#
DISCID=630dfb08
DTITLE=Cream - Silver Horses
DYEAR=1968
DGENRE=Blues
TTITLE0=White Room
TTITLE1=Politician
TTITLE2=Crossroads
TTITLE3=Sunshine Of Your Love
TTITLE4=Spoonful
TTITLE5=Deserted Cities Of The Heart
TTITLE6=Toad
TTITLE7=I'm So Glad
EXTD=
EXTT0=
EXTT1=
EXTT2=
EXTT3=
EXTT4=
EXTT5=
EXTT6=
EXTT7=
PLAYORDER=
